<mxfile host="app.diagrams.net" agent="Mozilla/5.0 (Windows NT 10.0; Win64; x64) AppleWebKit/537.36 (KHTML, like Gecko) Chrome/128.0.0.0 Safari/537.36" version="24.7.12">
  <diagram name="Página-1" id="Oj60BZZ1y63AxXeXHtzR">
    <mxGraphModel grid="1" page="1" gridSize="10" guides="1" tooltips="1" connect="1" arrows="1" fold="1" pageScale="1" pageWidth="827" pageHeight="1169" math="0" shadow="0">
      <root>
        <mxCell id="0" />
        <mxCell id="1" parent="0" />
        <mxCell id="rrQ0Vqq7T7_j1RIN4IFD-25" value="Caso De Uso General SalvaPOS" style="swimlane;whiteSpace=wrap;html=1;startSize=23;" vertex="1" parent="1">
          <mxGeometry x="-460" y="-50" width="1000" height="830" as="geometry" />
        </mxCell>
        <mxCell id="DqVYFgdr9HxwEfdE36Vr-16" value="Administrar inventario farmacéuticos" style="ellipse;whiteSpace=wrap;html=1;" vertex="1" parent="rrQ0Vqq7T7_j1RIN4IFD-25">
          <mxGeometry x="70" y="80" width="120" height="80" as="geometry" />
        </mxCell>
        <mxCell id="DqVYFgdr9HxwEfdE36Vr-18" value="" style="endArrow=classic;html=1;rounded=0;exitX=1;exitY=0.5;exitDx=0;exitDy=0;entryX=0;entryY=0.5;entryDx=0;entryDy=0;" edge="1" parent="rrQ0Vqq7T7_j1RIN4IFD-25" source="DqVYFgdr9HxwEfdE36Vr-16" target="bf3fUTPps8DILY-6-bA2-2">
          <mxGeometry width="50" height="50" relative="1" as="geometry">
            <mxPoint x="714" y="190" as="sourcePoint" />
            <mxPoint x="240" y="100" as="targetPoint" />
          </mxGeometry>
        </mxCell>
        <mxCell id="DqVYFgdr9HxwEfdE36Vr-20" value="" style="endArrow=classic;html=1;rounded=0;exitX=0.95;exitY=0.3;exitDx=0;exitDy=0;exitPerimeter=0;entryX=0.008;entryY=0.425;entryDx=0;entryDy=0;entryPerimeter=0;" edge="1" parent="rrQ0Vqq7T7_j1RIN4IFD-25" source="bf3fUTPps8DILY-6-bA2-2" target="bf3fUTPps8DILY-6-bA2-3">
          <mxGeometry width="50" height="50" relative="1" as="geometry">
            <mxPoint x="420" y="190" as="sourcePoint" />
            <mxPoint x="510" y="60" as="targetPoint" />
            <Array as="points" />
          </mxGeometry>
        </mxCell>
        <mxCell id="DqVYFgdr9HxwEfdE36Vr-22" value="" style="endArrow=classic;html=1;rounded=0;entryX=-0.008;entryY=0.413;entryDx=0;entryDy=0;exitX=1;exitY=0.5;exitDx=0;exitDy=0;entryPerimeter=0;" edge="1" parent="rrQ0Vqq7T7_j1RIN4IFD-25" source="bf3fUTPps8DILY-6-bA2-2" target="bf3fUTPps8DILY-6-bA2-4">
          <mxGeometry width="50" height="50" relative="1" as="geometry">
            <mxPoint x="660" y="190" as="sourcePoint" />
            <mxPoint x="700" y="190" as="targetPoint" />
            <Array as="points" />
          </mxGeometry>
        </mxCell>
        <mxCell id="DqVYFgdr9HxwEfdE36Vr-4" value="Consultar Inventario" style="ellipse;whiteSpace=wrap;html=1;" vertex="1" parent="rrQ0Vqq7T7_j1RIN4IFD-25">
          <mxGeometry x="70" y="380" width="120" height="80" as="geometry" />
        </mxCell>
        <mxCell id="DqVYFgdr9HxwEfdE36Vr-3" value="Revisa si existe tal medicamento" style="ellipse;whiteSpace=wrap;html=1;" vertex="1" parent="rrQ0Vqq7T7_j1RIN4IFD-25">
          <mxGeometry x="270" y="380" width="120" height="80" as="geometry" />
        </mxCell>
        <mxCell id="DqVYFgdr9HxwEfdE36Vr-8" value="" style="endArrow=classic;html=1;rounded=0;exitX=1;exitY=0.5;exitDx=0;exitDy=0;entryX=0;entryY=0.5;entryDx=0;entryDy=0;" edge="1" parent="rrQ0Vqq7T7_j1RIN4IFD-25" source="DqVYFgdr9HxwEfdE36Vr-4" target="DqVYFgdr9HxwEfdE36Vr-3">
          <mxGeometry width="50" height="50" relative="1" as="geometry">
            <mxPoint x="820" y="430" as="sourcePoint" />
            <mxPoint x="840" y="450" as="targetPoint" />
          </mxGeometry>
        </mxCell>
        <mxCell id="DqVYFgdr9HxwEfdE36Vr-14" value="Seleccionar Producto" style="ellipse;whiteSpace=wrap;html=1;" vertex="1" parent="rrQ0Vqq7T7_j1RIN4IFD-25">
          <mxGeometry x="60" y="735" width="120" height="80" as="geometry" />
        </mxCell>
        <mxCell id="DqVYFgdr9HxwEfdE36Vr-5" value="Realiza Compra&amp;nbsp;" style="ellipse;whiteSpace=wrap;html=1;" vertex="1" parent="rrQ0Vqq7T7_j1RIN4IFD-25">
          <mxGeometry x="410" y="735" width="120" height="80" as="geometry" />
        </mxCell>
        <mxCell id="DqVYFgdr9HxwEfdE36Vr-15" value="" style="endArrow=classic;html=1;rounded=0;exitX=1;exitY=0.5;exitDx=0;exitDy=0;entryX=0;entryY=0.5;entryDx=0;entryDy=0;" edge="1" parent="rrQ0Vqq7T7_j1RIN4IFD-25" source="DqVYFgdr9HxwEfdE36Vr-14" target="DqVYFgdr9HxwEfdE36Vr-5">
          <mxGeometry width="50" height="50" relative="1" as="geometry">
            <mxPoint x="680" y="540" as="sourcePoint" />
            <mxPoint x="730" y="490" as="targetPoint" />
          </mxGeometry>
        </mxCell>
        <mxCell id="DqVYFgdr9HxwEfdE36Vr-10" value="Recibir Comprobante&amp;nbsp;" style="ellipse;whiteSpace=wrap;html=1;" vertex="1" parent="rrQ0Vqq7T7_j1RIN4IFD-25">
          <mxGeometry x="740" y="735" width="120" height="80" as="geometry" />
        </mxCell>
        <mxCell id="DqVYFgdr9HxwEfdE36Vr-12" value="" style="endArrow=classic;html=1;rounded=0;entryX=0;entryY=0.5;entryDx=0;entryDy=0;exitX=1;exitY=0.5;exitDx=0;exitDy=0;" edge="1" parent="rrQ0Vqq7T7_j1RIN4IFD-25" source="DqVYFgdr9HxwEfdE36Vr-5" target="DqVYFgdr9HxwEfdE36Vr-10">
          <mxGeometry width="50" height="50" relative="1" as="geometry">
            <mxPoint x="700" y="530" as="sourcePoint" />
            <mxPoint x="750" y="480" as="targetPoint" />
          </mxGeometry>
        </mxCell>
        <mxCell id="bf3fUTPps8DILY-6-bA2-2" value="Ver Inventario" style="ellipse;whiteSpace=wrap;html=1;" vertex="1" parent="rrQ0Vqq7T7_j1RIN4IFD-25">
          <mxGeometry x="250" y="50" width="120" height="80" as="geometry" />
        </mxCell>
        <mxCell id="bf3fUTPps8DILY-6-bA2-3" value="editar" style="ellipse;whiteSpace=wrap;html=1;" vertex="1" parent="rrQ0Vqq7T7_j1RIN4IFD-25">
          <mxGeometry x="430" y="40" width="120" height="80" as="geometry" />
        </mxCell>
        <mxCell id="bf3fUTPps8DILY-6-bA2-4" value="Ver medicamento ingresados" style="ellipse;whiteSpace=wrap;html=1;" vertex="1" parent="rrQ0Vqq7T7_j1RIN4IFD-25">
          <mxGeometry x="430" y="130" width="120" height="80" as="geometry" />
        </mxCell>
        <mxCell id="bf3fUTPps8DILY-6-bA2-5" value="precios&amp;nbsp;" style="ellipse;whiteSpace=wrap;html=1;" vertex="1" parent="rrQ0Vqq7T7_j1RIN4IFD-25">
          <mxGeometry x="430" y="230" width="120" height="80" as="geometry" />
        </mxCell>
        <mxCell id="bf3fUTPps8DILY-6-bA2-6" value="" style="endArrow=classic;html=1;rounded=0;entryX=0.017;entryY=0.425;entryDx=0;entryDy=0;exitX=1;exitY=1;exitDx=0;exitDy=0;entryPerimeter=0;" edge="1" parent="rrQ0Vqq7T7_j1RIN4IFD-25" source="bf3fUTPps8DILY-6-bA2-2" target="bf3fUTPps8DILY-6-bA2-5">
          <mxGeometry width="50" height="50" relative="1" as="geometry">
            <mxPoint x="361" y="200" as="sourcePoint" />
            <mxPoint x="420" y="273" as="targetPoint" />
            <Array as="points" />
          </mxGeometry>
        </mxCell>
        <mxCell id="bf3fUTPps8DILY-6-bA2-7" value="administrar factura" style="ellipse;whiteSpace=wrap;html=1;" vertex="1" parent="rrQ0Vqq7T7_j1RIN4IFD-25">
          <mxGeometry x="590" y="230" width="120" height="80" as="geometry" />
        </mxCell>
        <mxCell id="bf3fUTPps8DILY-6-bA2-8" value="" style="endArrow=classic;html=1;rounded=0;entryX=-0.025;entryY=0.588;entryDx=0;entryDy=0;entryPerimeter=0;" edge="1" parent="rrQ0Vqq7T7_j1RIN4IFD-25" target="bf3fUTPps8DILY-6-bA2-7">
          <mxGeometry width="50" height="50" relative="1" as="geometry">
            <mxPoint x="550" y="280" as="sourcePoint" />
            <mxPoint x="600" y="230" as="targetPoint" />
          </mxGeometry>
        </mxCell>
        <mxCell id="bf3fUTPps8DILY-6-bA2-9" value="Por Fecha" style="ellipse;whiteSpace=wrap;html=1;" vertex="1" parent="rrQ0Vqq7T7_j1RIN4IFD-25">
          <mxGeometry x="700" y="140" width="120" height="80" as="geometry" />
        </mxCell>
        <mxCell id="bf3fUTPps8DILY-6-bA2-10" value="Mes" style="ellipse;whiteSpace=wrap;html=1;" vertex="1" parent="rrQ0Vqq7T7_j1RIN4IFD-25">
          <mxGeometry x="860" y="240" width="120" height="80" as="geometry" />
        </mxCell>
        <mxCell id="bf3fUTPps8DILY-6-bA2-11" value="" style="endArrow=classic;html=1;rounded=0;entryX=0;entryY=0.5;entryDx=0;entryDy=0;exitX=1;exitY=0;exitDx=0;exitDy=0;" edge="1" parent="rrQ0Vqq7T7_j1RIN4IFD-25" source="bf3fUTPps8DILY-6-bA2-7" target="bf3fUTPps8DILY-6-bA2-9">
          <mxGeometry width="50" height="50" relative="1" as="geometry">
            <mxPoint x="730" y="250" as="sourcePoint" />
            <mxPoint x="789" y="323" as="targetPoint" />
            <Array as="points" />
          </mxGeometry>
        </mxCell>
        <mxCell id="bf3fUTPps8DILY-6-bA2-12" value="" style="endArrow=classic;html=1;rounded=0;entryX=0;entryY=0.5;entryDx=0;entryDy=0;exitX=1;exitY=0.5;exitDx=0;exitDy=0;" edge="1" parent="rrQ0Vqq7T7_j1RIN4IFD-25" source="bf3fUTPps8DILY-6-bA2-9" target="bf3fUTPps8DILY-6-bA2-10">
          <mxGeometry width="50" height="50" relative="1" as="geometry">
            <mxPoint x="702" y="252" as="sourcePoint" />
            <mxPoint x="710" y="190" as="targetPoint" />
            <Array as="points" />
          </mxGeometry>
        </mxCell>
        <mxCell id="bf3fUTPps8DILY-6-bA2-13" value="Año" style="ellipse;whiteSpace=wrap;html=1;" vertex="1" parent="rrQ0Vqq7T7_j1RIN4IFD-25">
          <mxGeometry x="860" y="150" width="120" height="80" as="geometry" />
        </mxCell>
        <mxCell id="bf3fUTPps8DILY-6-bA2-14" value="" style="endArrow=classic;html=1;rounded=0;entryX=0;entryY=0.5;entryDx=0;entryDy=0;exitX=1;exitY=0.5;exitDx=0;exitDy=0;" edge="1" parent="rrQ0Vqq7T7_j1RIN4IFD-25" source="bf3fUTPps8DILY-6-bA2-9" target="bf3fUTPps8DILY-6-bA2-13">
          <mxGeometry width="50" height="50" relative="1" as="geometry">
            <mxPoint x="702" y="252" as="sourcePoint" />
            <mxPoint x="710" y="190" as="targetPoint" />
            <Array as="points" />
          </mxGeometry>
        </mxCell>
        <mxCell id="bf3fUTPps8DILY-6-bA2-15" value="Dia" style="ellipse;whiteSpace=wrap;html=1;" vertex="1" parent="rrQ0Vqq7T7_j1RIN4IFD-25">
          <mxGeometry x="860" y="60" width="120" height="80" as="geometry" />
        </mxCell>
        <mxCell id="bf3fUTPps8DILY-6-bA2-16" value="" style="endArrow=classic;html=1;rounded=0;entryX=0;entryY=0.5;entryDx=0;entryDy=0;" edge="1" parent="rrQ0Vqq7T7_j1RIN4IFD-25" source="bf3fUTPps8DILY-6-bA2-9" target="bf3fUTPps8DILY-6-bA2-15">
          <mxGeometry width="50" height="50" relative="1" as="geometry">
            <mxPoint x="702" y="252" as="sourcePoint" />
            <mxPoint x="710" y="190" as="targetPoint" />
            <Array as="points" />
          </mxGeometry>
        </mxCell>
        <mxCell id="bf3fUTPps8DILY-6-bA2-17" value="Procesa la forma de pago&amp;nbsp;" style="ellipse;whiteSpace=wrap;html=1;" vertex="1" parent="rrQ0Vqq7T7_j1RIN4IFD-25">
          <mxGeometry x="610" y="360" width="120" height="80" as="geometry" />
        </mxCell>
        <mxCell id="bf3fUTPps8DILY-6-bA2-19" value="" style="endArrow=classic;html=1;rounded=0;entryX=0;entryY=0.5;entryDx=0;entryDy=0;exitX=1.008;exitY=0.338;exitDx=0;exitDy=0;exitPerimeter=0;" edge="1" parent="rrQ0Vqq7T7_j1RIN4IFD-25" source="DqVYFgdr9HxwEfdE36Vr-3" target="bf3fUTPps8DILY-6-bA2-17">
          <mxGeometry width="50" height="50" relative="1" as="geometry">
            <mxPoint x="390" y="420" as="sourcePoint" />
            <mxPoint x="440" y="370" as="targetPoint" />
          </mxGeometry>
        </mxCell>
        <mxCell id="bf3fUTPps8DILY-6-bA2-22" value="" style="endArrow=classic;html=1;rounded=0;exitX=0.5;exitY=1;exitDx=0;exitDy=0;entryX=0.5;entryY=0;entryDx=0;entryDy=0;" edge="1" parent="rrQ0Vqq7T7_j1RIN4IFD-25" source="bf3fUTPps8DILY-6-bA2-17" target="DqVYFgdr9HxwEfdE36Vr-5">
          <mxGeometry width="50" height="50" relative="1" as="geometry">
            <mxPoint x="540" y="490" as="sourcePoint" />
            <mxPoint x="590" y="440" as="targetPoint" />
          </mxGeometry>
        </mxCell>
        <mxCell id="bf3fUTPps8DILY-6-bA2-23" value="Tarjeta" style="ellipse;whiteSpace=wrap;html=1;" vertex="1" parent="rrQ0Vqq7T7_j1RIN4IFD-25">
          <mxGeometry x="780" y="330" width="120" height="80" as="geometry" />
        </mxCell>
        <mxCell id="bf3fUTPps8DILY-6-bA2-24" value="Efectivo" style="ellipse;whiteSpace=wrap;html=1;" vertex="1" parent="rrQ0Vqq7T7_j1RIN4IFD-25">
          <mxGeometry x="780" y="440" width="120" height="80" as="geometry" />
        </mxCell>
        <mxCell id="bf3fUTPps8DILY-6-bA2-25" value="" style="endArrow=classic;html=1;rounded=0;entryX=-0.008;entryY=0.375;entryDx=0;entryDy=0;exitX=1;exitY=0.5;exitDx=0;exitDy=0;entryPerimeter=0;" edge="1" parent="rrQ0Vqq7T7_j1RIN4IFD-25" source="bf3fUTPps8DILY-6-bA2-17" target="bf3fUTPps8DILY-6-bA2-23">
          <mxGeometry width="50" height="50" relative="1" as="geometry">
            <mxPoint x="590" y="398.5" as="sourcePoint" />
            <mxPoint x="669" y="401.5" as="targetPoint" />
          </mxGeometry>
        </mxCell>
        <mxCell id="bf3fUTPps8DILY-6-bA2-26" value="" style="endArrow=classic;html=1;rounded=0;entryX=0;entryY=0.5;entryDx=0;entryDy=0;exitX=0.908;exitY=0.863;exitDx=0;exitDy=0;exitPerimeter=0;" edge="1" parent="rrQ0Vqq7T7_j1RIN4IFD-25" source="bf3fUTPps8DILY-6-bA2-17" target="bf3fUTPps8DILY-6-bA2-24">
          <mxGeometry width="50" height="50" relative="1" as="geometry">
            <mxPoint x="591" y="500" as="sourcePoint" />
            <mxPoint x="670" y="503" as="targetPoint" />
          </mxGeometry>
        </mxCell>
        <mxCell id="bf3fUTPps8DILY-6-bA2-27" value="modifica inventario" style="ellipse;whiteSpace=wrap;html=1;" vertex="1" parent="rrQ0Vqq7T7_j1RIN4IFD-25">
          <mxGeometry x="150" y="530" width="120" height="80" as="geometry" />
        </mxCell>
        <mxCell id="bf3fUTPps8DILY-6-bA2-28" value="" style="endArrow=classic;html=1;rounded=0;entryX=0.05;entryY=0.4;entryDx=0;entryDy=0;entryPerimeter=0;exitX=0.717;exitY=1.013;exitDx=0;exitDy=0;exitPerimeter=0;" edge="1" parent="rrQ0Vqq7T7_j1RIN4IFD-25" source="DqVYFgdr9HxwEfdE36Vr-4" target="bf3fUTPps8DILY-6-bA2-27">
          <mxGeometry width="50" height="50" relative="1" as="geometry">
            <mxPoint x="190" y="490" as="sourcePoint" />
            <mxPoint x="240" y="440" as="targetPoint" />
          </mxGeometry>
        </mxCell>
        <mxCell id="bf3fUTPps8DILY-6-bA2-29" value="Elimina" style="ellipse;whiteSpace=wrap;html=1;" vertex="1" parent="rrQ0Vqq7T7_j1RIN4IFD-25">
          <mxGeometry x="320" y="474.5" width="120" height="80" as="geometry" />
        </mxCell>
        <mxCell id="bf3fUTPps8DILY-6-bA2-30" value="modifica" style="ellipse;whiteSpace=wrap;html=1;" vertex="1" parent="rrQ0Vqq7T7_j1RIN4IFD-25">
          <mxGeometry x="320" y="554.5" width="120" height="80" as="geometry" />
        </mxCell>
        <mxCell id="bf3fUTPps8DILY-6-bA2-31" value="" style="endArrow=classic;html=1;rounded=0;entryX=0.025;entryY=0.3;entryDx=0;entryDy=0;entryPerimeter=0;exitX=1;exitY=1;exitDx=0;exitDy=0;" edge="1" parent="rrQ0Vqq7T7_j1RIN4IFD-25" source="bf3fUTPps8DILY-6-bA2-27" target="bf3fUTPps8DILY-6-bA2-30">
          <mxGeometry width="50" height="50" relative="1" as="geometry">
            <mxPoint x="300" y="570" as="sourcePoint" />
            <mxPoint x="350" y="520" as="targetPoint" />
          </mxGeometry>
        </mxCell>
        <mxCell id="bf3fUTPps8DILY-6-bA2-32" value="" style="endArrow=classic;html=1;rounded=0;entryX=0;entryY=0.5;entryDx=0;entryDy=0;exitX=1;exitY=0;exitDx=0;exitDy=0;" edge="1" parent="rrQ0Vqq7T7_j1RIN4IFD-25" source="bf3fUTPps8DILY-6-bA2-27" target="bf3fUTPps8DILY-6-bA2-29">
          <mxGeometry width="50" height="50" relative="1" as="geometry">
            <mxPoint x="270" y="514" as="sourcePoint" />
            <mxPoint x="311" y="520" as="targetPoint" />
          </mxGeometry>
        </mxCell>
        <mxCell id="bf3fUTPps8DILY-6-bA2-34" value="Ingresar" style="ellipse;whiteSpace=wrap;html=1;" vertex="1" parent="rrQ0Vqq7T7_j1RIN4IFD-25">
          <mxGeometry x="320" y="640" width="120" height="80" as="geometry" />
        </mxCell>
        <mxCell id="bf3fUTPps8DILY-6-bA2-35" value="" style="endArrow=classic;html=1;rounded=0;entryX=0;entryY=0.5;entryDx=0;entryDy=0;exitX=0.658;exitY=1.013;exitDx=0;exitDy=0;exitPerimeter=0;" edge="1" parent="rrQ0Vqq7T7_j1RIN4IFD-25" source="bf3fUTPps8DILY-6-bA2-27" target="bf3fUTPps8DILY-6-bA2-34">
          <mxGeometry width="50" height="50" relative="1" as="geometry">
            <mxPoint x="269" y="680" as="sourcePoint" />
            <mxPoint x="310" y="686" as="targetPoint" />
          </mxGeometry>
        </mxCell>
        <mxCell id="DqVYFgdr9HxwEfdE36Vr-1" value="&lt;div style=&quot;forced-color-adjust: none;&quot;&gt;administrador&lt;/div&gt;&lt;div style=&quot;forced-color-adjust: none;&quot;&gt;&lt;br&gt;&lt;/div&gt;" style="shape=umlActor;verticalLabelPosition=bottom;verticalAlign=top;html=1;outlineConnect=0;" vertex="1" parent="1">
          <mxGeometry x="-540" y="30" width="30" height="60" as="geometry" />
        </mxCell>
        <mxCell id="DqVYFgdr9HxwEfdE36Vr-2" value="&lt;div style=&quot;forced-color-adjust: none;&quot;&gt;Cliente&lt;/div&gt;" style="shape=umlActor;verticalLabelPosition=bottom;verticalAlign=top;html=1;outlineConnect=0;" vertex="1" parent="1">
          <mxGeometry x="-550" y="695" width="30" height="60" as="geometry" />
        </mxCell>
        <mxCell id="DqVYFgdr9HxwEfdE36Vr-6" value="Farmacéutico" style="shape=umlActor;verticalLabelPosition=bottom;verticalAlign=top;html=1;outlineConnect=0;" vertex="1" parent="1">
          <mxGeometry x="-550" y="330" width="30" height="60" as="geometry" />
        </mxCell>
        <mxCell id="DqVYFgdr9HxwEfdE36Vr-7" value="" style="endArrow=classic;html=1;rounded=0;exitX=0.5;exitY=0.5;exitDx=0;exitDy=0;exitPerimeter=0;entryX=0;entryY=0.5;entryDx=0;entryDy=0;" edge="1" parent="1" source="DqVYFgdr9HxwEfdE36Vr-6" target="DqVYFgdr9HxwEfdE36Vr-4">
          <mxGeometry width="50" height="50" relative="1" as="geometry">
            <mxPoint x="40" y="170" as="sourcePoint" />
            <mxPoint x="130" y="290" as="targetPoint" />
          </mxGeometry>
        </mxCell>
        <mxCell id="DqVYFgdr9HxwEfdE36Vr-9" value="" style="endArrow=classic;html=1;rounded=0;entryX=0;entryY=0.5;entryDx=0;entryDy=0;exitX=0.5;exitY=0.5;exitDx=0;exitDy=0;exitPerimeter=0;" edge="1" parent="1" source="DqVYFgdr9HxwEfdE36Vr-1" target="DqVYFgdr9HxwEfdE36Vr-16">
          <mxGeometry width="50" height="50" relative="1" as="geometry">
            <mxPoint x="30" y="320" as="sourcePoint" />
            <mxPoint x="120" y="90" as="targetPoint" />
          </mxGeometry>
        </mxCell>
        <mxCell id="DqVYFgdr9HxwEfdE36Vr-11" value="" style="endArrow=classic;html=1;rounded=0;exitX=0.5;exitY=0.5;exitDx=0;exitDy=0;exitPerimeter=0;entryX=0;entryY=0.5;entryDx=0;entryDy=0;" edge="1" parent="1" source="DqVYFgdr9HxwEfdE36Vr-2" target="DqVYFgdr9HxwEfdE36Vr-14">
          <mxGeometry width="50" height="50" relative="1" as="geometry">
            <mxPoint x="30" y="450" as="sourcePoint" />
            <mxPoint x="110" y="450" as="targetPoint" />
          </mxGeometry>
        </mxCell>
      </root>
    </mxGraphModel>
  </diagram>
</mxfile>
